<?xml version="1.0" encoding="utf-8"?>
<!-- Generator: Adobe Illustrator 23.1.0, SVG Export Plug-In . SVG Version: 6.00 Build 0)  -->
<svg version="1.1" id="Calque_1" xmlns="http://www.w3.org/2000/svg" xmlns:xlink="http://www.w3.org/1999/xlink" x="0px" y="0px"
	 viewBox="0 0 595.28 841.89" style="enable-background:new 0 0 595.28 841.89;" xml:space="preserve">
<style type="text/css">
	.st0{stroke:#000000;stroke-width:4;stroke-miterlimit:10;}
</style>
<path class="st0" d="M152.4,649.12c0-7.85,0.54-15.58,1.57-23.19c-8.56-6.67-16.77-14.01-24.55-22.02
	c-91.09-93.84-88.86-243.75,4.97-334.83c93.84-91.09,243.75-88.86,334.83,4.97c58.46,60.23,78.47,143.55,60.49,219.6
	c12.9,8.92,24.66,19,35.08,30.05c29.46-96.28,6.14-205.24-70.02-281.4c-109.84-109.84-287.93-109.84-397.77,0
	c-109.84,109.84-109.84,287.93,0,397.77c18.09,18.09,38.04,33.2,59.23,45.33C153.72,673.63,152.4,661.51,152.4,649.12z"/>
</svg>
