<?xml version="1.0" encoding="utf-8"?>
<!-- Generator: Adobe Illustrator 23.1.0, SVG Export Plug-In . SVG Version: 6.00 Build 0)  -->
<svg version="1.1" id="Calque_1" xmlns="http://www.w3.org/2000/svg" xmlns:xlink="http://www.w3.org/1999/xlink" x="0px" y="0px"
	 viewBox="0 0 595.28 841.89" style="enable-background:new 0 0 595.28 841.89;" xml:space="preserve">
<style type="text/css">
	.st0{stroke:#000000;stroke-width:4;stroke-miterlimit:10;}
</style>
<path class="st0" d="M546.3,534.14c-42.51,90.02-134.09,152.3-240.23,152.3c-146.66,0-265.53-118.9-265.53-265.53
	c0-146.66,118.9-265.53,265.53-265.53c114.02,0,211.24,71.86,248.87,172.78c7.96-2.2,16.22-3.88,24.77-4.94
	c-40.13-112.38-147.48-192.79-273.64-192.79c-160.44,0-290.5,130.06-290.5,290.5s130.06,290.5,290.5,290.5
	c117.84,0,219.32-70.19,264.85-171.02C562.4,538.9,554.15,536.82,546.3,534.14z"/>
</svg>
