<?xml version="1.0" encoding="utf-8"?>
<!-- Generator: Adobe Illustrator 23.1.0, SVG Export Plug-In . SVG Version: 6.00 Build 0)  -->
<svg version="1.1" id="Calque_1" xmlns="http://www.w3.org/2000/svg" xmlns:xlink="http://www.w3.org/1999/xlink" x="0px" y="0px"
	 viewBox="0 0 595.28 841.89" style="enable-background:new 0 0 595.28 841.89;" xml:space="preserve">
<style type="text/css">
	.st0{stroke:#000000;stroke-width:4;stroke-miterlimit:10;}
</style>
<path class="st0" d="M552.38,349.28c-8.68,0-17.19-0.64-25.5-1.85c26.27,82.81,5.83,177.05-60.75,241.68
	c-93.84,91.09-243.75,88.86-334.83-4.97c-91.09-93.84-88.86-243.75,4.97-334.83c69.41-67.38,169.49-83.68,253.76-49.64
	c0-0.13-0.01-0.26-0.01-0.39c0-14.61,2.27-28.73,6.49-42.09c-98.79-34.57-213.02-12.4-291.99,66.56
	c-109.84,109.84-109.84,287.93,0,397.77c109.84,109.84,287.93,109.84,397.77,0c74.12-74.12,98.22-179.31,72.3-273.64
	C567.33,348.8,559.92,349.28,552.38,349.28z M485.21,604.43c-83.19,83.19-209.2,97.45-307.07,42.79
	c96.86,52.32,220.32,38.61,303.5-42.14c56.47-54.82,82.61-129.11,78.11-201.95C565.21,475.27,540.37,549.27,485.21,604.43z"/>
</svg>
